<svg xmlns="http://www.w3.org/2000/svg" version="1.1" xmlns:xlink="http://www.w3.org/1999/xlink" width="41" height="41"><svg xmlns="http://www.w3.org/2000/svg" version="1.1" xmlns:xlink="http://www.w3.org/1999/xlink" width="41" height="41"><svg width="41" height="41" viewBox="0 0 41 41" fill="none" xmlns="http://www.w3.org/2000/svg">
<g clip-path="url(#clip0_2487_239)">
<g clip-path="url(#clip1_2487_239)">
<g clip-path="url(#clip2_2487_239)">
<mask id="mask0_2487_239" style="mask-type:alpha" maskUnits="userSpaceOnUse" x="3" y="9" width="36" height="24">
<path d="M22.7833 32.7201H35.8544C36.2715 32.7201 36.6708 32.5725 37.032 32.3643C37.3933 32.1561 37.7656 31.8947 37.9741 31.534C38.1825 31.1734 38.3275 30.7643 38.3274 30.348C38.3272 29.9316 38.1829 29.5226 37.9741 29.1622L29.1422 13.8626C28.9338 13.502 28.6791 13.2406 28.318 13.0324C27.9568 12.8243 27.4396 12.6766 27.0226 12.6766C26.6056 12.6766 26.2062 12.8243 25.8451 13.0324C25.4839 13.2406 25.2292 13.502 25.0207 13.8626L22.7833 17.7765L18.3085 10.1857C18.0999 9.82522 17.8455 9.44534 17.4842 9.23723C17.1229 9.02904 16.7238 9 16.3067 9C15.8896 9 15.4903 9.02904 15.129 9.23723C14.7678 9.44534 14.3957 9.82522 14.187 10.1857L3.23554 29.1622C3.02675 29.5226 3.00017 29.9316 3 30.348C2.99983 30.7643 3.02708 31.1734 3.23554 31.534C3.44401 31.8946 3.81636 32.1561 4.17755 32.3643C4.53882 32.5725 4.93801 32.7201 5.35519 32.7201H13.5982C16.8644 32.7201 19.2418 31.2444 20.8992 28.4505L24.903 21.453L27.0226 17.7765L33.4993 28.9248H24.903L22.7833 32.7201ZM13.4805 28.9248H7.71029L16.3067 13.9812L20.6637 21.453L17.7776 26.5202C16.6769 28.333 15.422 28.9248 13.4805 28.9248Z" fill="#00DC82"></path>
</mask>
<g mask="url(#mask0_2487_239)">
<path d="M47.1277 15.5595L31.8672 8.34375L17.3335 39.0809L32.594 46.2967L47.1277 15.5595Z" fill="#F3B01C"></path>
<path d="M36.1279 10.5602L23.4434 4.5625L8.90965 35.2996L21.5941 41.2974L36.1279 10.5602Z" fill="#8D2676"></path>
<path d="M24.6109 8.42707L12.5254 1.34375L-4.66676 30.6768L7.41874 37.7602L24.6109 8.42707Z" fill="#EE342F"></path>
</g>
</g>
</g>
</g>
<defs>
<clipPath id="clip0_2487_239">
<rect width="36" height="24" fill="white" transform="translate(3 9)"></rect>
</clipPath>
<clipPath id="clip1_2487_239">
<rect width="36" height="24" fill="white" transform="translate(3 9)"></rect>
</clipPath>
<clipPath id="clip2_2487_239">
<rect width="36" height="24" fill="white" transform="translate(3 9)"></rect>
</clipPath>
</defs>
</svg></svg><style>@media (prefers-color-scheme: light) { :root { filter: none; } }
@media (prefers-color-scheme: dark) { :root { filter: none; } }
</style></svg>